<svg width="104" height="30" viewBox="0 0 104 30" fill="none" xmlns="http://www.w3.org/2000/svg">
<path d="M0.7 24V0.934999H8.12L17.78 13.675V0.934999H29.33V6.605H25.27V24H17.78L8.19 11.365V24H0.7ZM28.0779 24.245V0.934999H49.3579V6.605H36.0579V10H48.3779V15.11H36.0579V24.245H28.0779ZM50.7732 6.395V0.829998H74.9932V6.395H66.7682V24H58.8232V6.395H50.7732Z" fill="black"/>
<path d="M90.045 21.885V24.18H87.03C86.15 24.18 85.355 24.07 84.645 23.85C83.935 23.62 83.33 23.29 82.83 22.86C82.34 22.42 81.96 21.88 81.69 21.24C81.43 20.6 81.3 19.865 81.3 19.035C81.3 17.405 81.785 16.15 82.755 15.27C83.725 14.38 85.095 13.935 86.865 13.935H90.045V16.23H86.94C86.49 16.27 86.135 16.35 85.875 16.47C85.615 16.59 85.38 16.79 85.17 17.07C84.87 17.49 84.72 18.135 84.72 19.005C84.72 19.845 84.875 20.52 85.185 21.03C85.505 21.54 86.05 21.825 86.82 21.885H90.045ZM90.6457 20.445C90.6457 19.855 90.7607 19.33 90.9907 18.87C91.2307 18.4 91.5507 18.005 91.9507 17.685C92.3607 17.365 92.8457 17.12 93.4057 16.95C93.9657 16.77 94.5657 16.68 95.2057 16.68C96.8057 16.68 98.0107 17.095 98.8207 17.925C99.4707 18.585 99.7957 19.41 99.7957 20.4C99.7957 21 99.6807 21.535 99.4507 22.005C99.2207 22.465 98.9007 22.855 98.4907 23.175C98.0807 23.495 97.5957 23.74 97.0357 23.91C96.4757 24.08 95.8657 24.165 95.2057 24.165C93.9357 24.165 92.9057 23.875 92.1157 23.295C91.1357 22.555 90.6457 21.605 90.6457 20.445ZM93.7057 20.445C93.7057 21.075 93.8507 21.545 94.1407 21.855C94.4307 22.155 94.7957 22.305 95.2357 22.305C95.6757 22.305 96.0357 22.155 96.3157 21.855C96.5957 21.555 96.7357 21.075 96.7357 20.415C96.7357 19.795 96.5907 19.335 96.3007 19.035C96.0207 18.725 95.6707 18.57 95.2507 18.57C94.8107 18.57 94.4407 18.725 94.1407 19.035C93.8507 19.335 93.7057 19.805 93.7057 20.445ZM100.402 24V21.24H103.672V24H100.402Z" fill="#FF3030"/>
</svg>
